# xmcd
#
# Track frame offsets:
#	150
#	21227
#	41925
#	64996
#	82553
#	110013
#	129041
#	150065
#	164576
#	187853
#
# Disc length: 2779 seconds
#
# Revision: 1903088251
# Processed by: cddbd v1.5.2PL0 Copyright (c) Steve Scherf et al.
# Submitted via: EZCDAudioConverter 8.0.2.1
#
DISCID=700ad90a
DTITLE=Khánh Hà - Nhạc Tình Muôn Thưở 4. Tình Là Giấc Mơ
DYEAR=2004
DGENRE=Miscellaneous
TTITLE0=Khánh Hà - Tình là giấc mơ
TTITLE1=Khánh Hà, Anh Tú - Vòng tay tình yêu
TTITLE2=Khánh Hà - Stay With Me
TTITLE3=Khánh Hà - Chỉ mình ta với bóng
TTITLE4=Khánh Hà, Thúy Anh, Anh Tú - Christopher Medley
TTITLE5=Khánh Hà - Thì thầm trong gió
TTITLE6=Khánh Hà, Anh Tú - Chiếc bóng mong manh
TTITLE7=Khánh Hà - Khi mình yêu
TTITLE8=Khánh Hà - Cho em ngày nắng xanh
TTITLE9=Khánh Hà - I Will Wait For You
EXTD=
EXTT0=
EXTT1=
EXTT2=
EXTT3=
EXTT4=
EXTT5=
EXTT6=
EXTT7=
EXTT8=
EXTT9=
PLAYORDER=
